<svg width="102" height="14" viewBox="0 0 102 14" fill="none" xmlns="http://www.w3.org/2000/svg">
<path d="M5.576 0.992C6.056 0.992 6.488 1.03467 6.872 1.12C7.256 1.2 7.61867 1.31467 7.96 1.464L7.48 2.568C7.208 2.45067 6.91733 2.36267 6.608 2.304C6.304 2.24533 5.992 2.216 5.672 2.216C5.096 2.216 4.66667 2.328 4.384 2.552C4.10133 2.776 3.96 3.12 3.96 3.584V5.2H6.808L6.64 6.368H3.96V13H2.432V6.368H0.456V5.2H2.432V3.592C2.432 3.064 2.56533 2.60533 2.832 2.216C3.104 1.82667 3.47467 1.52533 3.944 1.312C4.41867 1.09867 4.96267 0.992 5.576 0.992ZM14.5378 5.2V11.832H16.8818V13H10.4338V11.832H13.0017V6.368H10.5138V5.2H14.5378ZM13.3938 1.088C13.7138 1.088 13.9698 1.18667 14.1618 1.384C14.3591 1.58133 14.4578 1.82133 14.4578 2.104C14.4578 2.40267 14.3591 2.65067 14.1618 2.848C13.9698 3.04533 13.7138 3.144 13.3938 3.144C13.0791 3.144 12.8231 3.04533 12.6258 2.848C12.4338 2.65067 12.3378 2.40267 12.3378 2.104C12.3378 1.82133 12.4338 1.58133 12.6258 1.384C12.8231 1.18667 13.0791 1.088 13.3938 1.088ZM19.7155 13V4.568H21.0355L21.1475 5.704C21.4942 5.272 21.9155 4.94133 22.4115 4.712C22.9128 4.48267 23.4115 4.368 23.9075 4.368C24.7182 4.368 25.3155 4.58933 25.6995 5.032C26.0835 5.46933 26.2755 6.08 26.2755 6.864V13H24.7395V7.808C24.7395 7.27467 24.7075 6.84267 24.6435 6.512C24.5848 6.176 24.4595 5.93333 24.2675 5.784C24.0755 5.63467 23.7848 5.56 23.3955 5.56C23.0915 5.56 22.8035 5.62667 22.5315 5.76C22.2595 5.89333 22.0142 6.06133 21.7955 6.264C21.5822 6.46667 21.4008 6.67733 21.2515 6.896V13H19.7155ZM34.3173 0.992L35.8533 1.176V13H34.5013L34.3733 11.92C34.0746 12.3467 33.7226 12.6667 33.3173 12.88C32.9119 13.0933 32.4693 13.2 31.9893 13.2C31.2639 13.2 30.6639 13.016 30.1893 12.648C29.7199 12.2747 29.3706 11.7573 29.1413 11.096C28.9119 10.4347 28.7973 9.66667 28.7973 8.792C28.7973 7.93867 28.9279 7.18133 29.1893 6.52C29.4559 5.85333 29.8346 5.328 30.3253 4.944C30.8213 4.56 31.4186 4.368 32.1173 4.368C32.5813 4.368 32.9946 4.45067 33.3573 4.616C33.7199 4.776 34.0399 5.01333 34.3173 5.328V0.992ZM32.5173 5.576C31.8613 5.576 31.3519 5.84 30.9893 6.368C30.6266 6.896 30.4453 7.704 30.4453 8.792C30.4453 9.512 30.5199 10.1093 30.6693 10.584C30.8186 11.0587 31.0346 11.4107 31.3173 11.64C31.5999 11.8693 31.9466 11.984 32.3573 11.984C32.7999 11.984 33.1813 11.856 33.5013 11.6C33.8266 11.344 34.0986 11.048 34.3173 10.712V6.592C34.0986 6.272 33.8346 6.024 33.5253 5.848C33.2213 5.66667 32.8853 5.576 32.5173 5.576ZM54.1688 4.368C54.4621 4.368 54.7341 4.432 54.9848 4.56C55.2354 4.688 55.4381 4.92267 55.5928 5.264C55.7474 5.6 55.8247 6.088 55.8247 6.728V13H54.4248V6.952C54.4248 6.46133 54.3928 6.10933 54.3288 5.896C54.2701 5.67733 54.0994 5.568 53.8168 5.568C53.5821 5.568 53.3501 5.64 53.1208 5.784C52.8914 5.928 52.6648 6.168 52.4408 6.504V13H51.0968V6.952C51.0968 6.46133 51.0648 6.10933 51.0008 5.896C50.9421 5.67733 50.7714 5.568 50.4888 5.568C50.2488 5.568 50.0141 5.64 49.7848 5.784C49.5608 5.928 49.3368 6.168 49.1128 6.504V13H47.7128V4.568H48.8968L48.9928 5.512C49.2274 5.18133 49.4861 4.90933 49.7688 4.696C50.0568 4.47733 50.4061 4.368 50.8168 4.368C51.1368 4.368 51.4328 4.44533 51.7048 4.6C51.9821 4.75467 52.1848 5.04267 52.3128 5.464C52.5421 5.13867 52.8034 4.87467 53.0968 4.672C53.3901 4.46933 53.7474 4.368 54.1688 4.368ZM59.3305 9.304C59.3625 9.92267 59.4878 10.4293 59.7065 10.824C59.9252 11.2133 60.2105 11.5013 60.5625 11.688C60.9145 11.8693 61.3038 11.96 61.7305 11.96C62.1518 11.96 62.5385 11.896 62.8905 11.768C63.2425 11.64 63.5998 11.4533 63.9625 11.208L64.6585 12.176C64.2638 12.4907 63.8078 12.7413 63.2905 12.928C62.7732 13.1093 62.2372 13.2 61.6825 13.2C60.8398 13.2 60.1225 13.016 59.5305 12.648C58.9438 12.2747 58.4958 11.7573 58.1865 11.096C57.8825 10.4347 57.7305 9.66667 57.7305 8.792C57.7305 7.944 57.8825 7.18667 58.1865 6.52C58.4958 5.85333 58.9305 5.328 59.4905 4.944C60.0505 4.56 60.7172 4.368 61.4905 4.368C62.2158 4.368 62.8398 4.536 63.3625 4.872C63.8905 5.208 64.2958 5.688 64.5785 6.312C64.8612 6.93067 65.0025 7.672 65.0025 8.536C65.0025 8.68 64.9998 8.81867 64.9945 8.952C64.9892 9.08533 64.9812 9.20267 64.9705 9.304H59.3305ZM61.5065 5.568C60.9092 5.568 60.4105 5.78133 60.0105 6.208C59.6158 6.63467 59.3892 7.29333 59.3305 8.184H63.5225C63.5065 7.33067 63.3198 6.68267 62.9625 6.24C62.6105 5.792 62.1252 5.568 61.5065 5.568ZM81.694 4.568V11.832H84.038V13H77.59V11.832H80.158V5.736H77.67V4.568H81.694ZM80.55 0.535999C80.87 0.535999 81.126 0.634666 81.318 0.832C81.5153 1.02933 81.614 1.26933 81.614 1.552C81.614 1.84533 81.5153 2.09333 81.318 2.296C81.126 2.49333 80.87 2.592 80.55 2.592C80.2353 2.592 79.9793 2.49333 79.782 2.296C79.59 2.09333 79.494 1.84533 79.494 1.552C79.494 1.26933 79.59 1.02933 79.782 0.832C79.9793 0.634666 80.2353 0.535999 80.55 0.535999ZM86.8718 13V4.568H88.1918L88.3038 5.704C88.6504 5.272 89.0718 4.94133 89.5677 4.712C90.0691 4.48267 90.5678 4.368 91.0638 4.368C91.8744 4.368 92.4718 4.58933 92.8558 5.032C93.2398 5.46933 93.4318 6.08 93.4318 6.864V13H91.8958V7.808C91.8958 7.27467 91.8638 6.84267 91.7998 6.512C91.7411 6.176 91.6158 5.93333 91.4238 5.784C91.2318 5.63467 90.9411 5.56 90.5518 5.56C90.2478 5.56 89.9598 5.62667 89.6878 5.76C89.4158 5.89333 89.1704 6.06133 88.9518 6.264C88.7384 6.46667 88.5571 6.67733 88.4078 6.896V13H86.8718ZM98.3695 11.832C98.3695 11.4693 98.5002 11.1547 98.7615 10.888C99.0228 10.6213 99.3428 10.488 99.7215 10.488C100.111 10.488 100.436 10.6213 100.698 10.888C100.959 11.1547 101.09 11.4693 101.09 11.832C101.09 12.2107 100.959 12.5333 100.698 12.8C100.436 13.0667 100.111 13.2 99.7215 13.2C99.3428 13.2 99.0228 13.0667 98.7615 12.8C98.5002 12.5333 98.3695 12.2107 98.3695 11.832ZM98.3695 6.104C98.3695 5.848 98.4282 5.61867 98.5455 5.416C98.6682 5.21333 98.8308 5.05333 99.0335 4.936C99.2415 4.81333 99.4708 4.752 99.7215 4.752C100.111 4.752 100.436 4.88533 100.698 5.152C100.959 5.41333 101.09 5.73067 101.09 6.104C101.09 6.472 100.959 6.792 100.698 7.064C100.436 7.33067 100.111 7.464 99.7215 7.464C99.3428 7.464 99.0228 7.33067 98.7615 7.064C98.5002 6.792 98.3695 6.472 98.3695 6.104Z" fill="#607B96"/>
</svg>
