<svg width="86" height="14" viewBox="0 0 86 14" fill="none" xmlns="http://www.w3.org/2000/svg">
<path d="M4.544 0.584837C5.36 0.584837 6.05067 0.704837 6.616 0.944838C7.18667 1.18484 7.65333 1.51817 8.016 1.94484C8.37867 2.3715 8.66133 2.8675 8.864 3.43284C9.06667 3.99284 9.20533 4.5955 9.28 5.24084C9.36 5.88617 9.4 6.5475 9.4 7.22484C9.4 8.56884 9.336 9.68884 9.208 10.5848C9.08533 11.4755 8.85333 12.1448 8.512 12.5928C8.17067 13.0408 7.67467 13.2648 7.024 13.2648C6.69867 13.2648 6.416 13.1875 6.176 13.0328C5.936 12.8835 5.73867 12.6888 5.584 12.4488C5.43467 12.2142 5.32267 11.9688 5.248 11.7128C5.17333 11.4515 5.136 11.2142 5.136 11.0008H5.072C4.97067 11.2515 4.82933 11.4968 4.648 11.7368C4.46667 11.9715 4.232 12.1635 3.944 12.3128C3.656 12.4675 3.30133 12.5448 2.88 12.5448C2.29333 12.5448 1.81867 12.3848 1.456 12.0648C1.09867 11.7502 0.837333 11.3182 0.672 10.7688C0.512 10.2142 0.432 9.58484 0.432 8.88084C0.432 7.50484 0.709333 6.47017 1.264 5.77684C1.81867 5.07817 2.60267 4.72884 3.616 4.72884C4 4.72884 4.37067 4.7715 4.728 4.85684C5.09067 4.94217 5.496 5.10484 5.944 5.34484V10.0808C5.944 10.6302 5.98933 11.0515 6.08 11.3448C6.17067 11.6328 6.296 11.8302 6.456 11.9368C6.616 12.0488 6.79467 12.1048 6.992 12.1048C7.22667 12.1048 7.408 11.9875 7.536 11.7528C7.664 11.5128 7.75467 11.1768 7.808 10.7448C7.86667 10.3128 7.90133 9.80084 7.912 9.20884C7.928 8.61684 7.936 7.96884 7.936 7.26484C7.936 6.48617 7.89067 5.76617 7.8 5.10484C7.71467 4.4435 7.552 3.8675 7.312 3.37684C7.07733 2.88617 6.736 2.50484 6.288 2.23284C5.84 1.9555 5.256 1.81684 4.536 1.81684C4.008 1.81684 3.44267 1.9155 2.84 2.11284C2.23733 2.30484 1.6 2.69684 0.928 3.28884L0.12 2.35284C0.84 1.7235 1.57333 1.27284 2.32 1.00084C3.06667 0.723504 3.808 0.584837 4.544 0.584837ZM3.664 5.81684C2.98133 5.81684 2.51467 6.07017 2.264 6.57684C2.01867 7.0835 1.896 7.8515 1.896 8.88084C1.896 9.39817 1.93067 9.84884 2 10.2328C2.07467 10.6168 2.19733 10.9155 2.368 11.1288C2.544 11.3368 2.784 11.4408 3.088 11.4408C3.43467 11.4408 3.70933 11.3608 3.912 11.2008C4.11467 11.0408 4.26933 10.8542 4.376 10.6408C4.48267 10.4222 4.56267 10.2355 4.616 10.0808V6.04084C4.46133 5.96084 4.30933 5.90484 4.16 5.87284C4.01067 5.8355 3.84533 5.81684 3.664 5.81684ZM12.6578 3.37684V9.31284C12.6578 9.84617 12.7671 10.2302 12.9858 10.4648C13.2044 10.6942 13.5378 10.8088 13.9858 10.8088C14.4178 10.8088 14.8284 10.6835 15.2178 10.4328C15.6071 10.1822 15.9111 9.8835 16.1298 9.53684V3.37684H17.6658V11.8088H16.3458L16.2338 10.6968C15.9138 11.1182 15.5111 11.4435 15.0258 11.6728C14.5404 11.8968 14.0498 12.0088 13.5538 12.0088C12.7378 12.0088 12.1271 11.7875 11.7218 11.3448C11.3218 10.9022 11.1218 10.2888 11.1218 9.50484V3.37684H12.6578ZM23.6675 10.7848C24.2808 10.7848 24.7635 10.6728 25.1155 10.4488C25.4728 10.2248 25.6515 9.92084 25.6515 9.53684C25.6515 9.2915 25.6035 9.08084 25.5075 8.90484C25.4168 8.72884 25.2248 8.56884 24.9315 8.42484C24.6435 8.28084 24.2062 8.13417 23.6195 7.98484C23.0488 7.84084 22.5502 7.67284 22.1235 7.48084C21.6968 7.28884 21.3662 7.03817 21.1315 6.72884C20.9022 6.4195 20.7875 6.0195 20.7875 5.52884C20.7875 5.04884 20.9208 4.63284 21.1875 4.28084C21.4595 3.92884 21.8408 3.65684 22.3315 3.46484C22.8275 3.27284 23.4035 3.17684 24.0595 3.17684C24.7528 3.17684 25.3555 3.27017 25.8675 3.45684C26.3848 3.63817 26.8222 3.86217 27.1795 4.12884L26.5235 5.12884C26.1982 4.91017 25.8408 4.7315 25.4515 4.59284C25.0675 4.45417 24.6142 4.38484 24.0915 4.38484C23.4675 4.38484 23.0222 4.48084 22.7555 4.67284C22.4942 4.8595 22.3635 5.1075 22.3635 5.41684C22.3635 5.64617 22.4275 5.83817 22.5555 5.99284C22.6888 6.14217 22.9155 6.28084 23.2355 6.40884C23.5555 6.53684 23.9982 6.67817 24.5635 6.83284C25.1128 6.98217 25.5928 7.15817 26.0035 7.36084C26.4142 7.5635 26.7315 7.83017 26.9555 8.16084C27.1848 8.48617 27.2995 8.9155 27.2995 9.44884C27.2995 10.0515 27.1262 10.5422 26.7795 10.9208C26.4328 11.2942 25.9822 11.5688 25.4275 11.7448C24.8782 11.9208 24.2915 12.0088 23.6675 12.0088C22.8995 12.0088 22.2382 11.8968 21.6835 11.6728C21.1342 11.4488 20.6728 11.1742 20.2995 10.8488L21.1475 9.87284C21.4782 10.1448 21.8568 10.3662 22.2835 10.5368C22.7102 10.7022 23.1715 10.7848 23.6675 10.7848ZM31.5493 8.11284C31.5813 8.7315 31.7066 9.23817 31.9253 9.63284C32.1439 10.0222 32.4293 10.3102 32.7812 10.4968C33.1333 10.6782 33.5226 10.7688 33.9493 10.7688C34.3706 10.7688 34.7573 10.7048 35.1093 10.5768C35.4613 10.4488 35.8186 10.2622 36.1813 10.0168L36.8773 10.9848C36.4826 11.2995 36.0266 11.5502 35.5093 11.7368C34.9919 11.9182 34.4559 12.0088 33.9013 12.0088C33.0586 12.0088 32.3413 11.8248 31.7493 11.4568C31.1626 11.0835 30.7146 10.5662 30.4053 9.90484C30.1013 9.2435 29.9493 8.4755 29.9493 7.60084C29.9493 6.75284 30.1013 5.9955 30.4053 5.32884C30.7146 4.66217 31.1493 4.13684 31.7093 3.75284C32.2693 3.36884 32.9359 3.17684 33.7093 3.17684C34.4346 3.17684 35.0586 3.34484 35.5813 3.68084C36.1093 4.01684 36.5146 4.49684 36.7973 5.12084C37.0799 5.7395 37.2213 6.48084 37.2213 7.34484C37.2213 7.48884 37.2186 7.6275 37.2133 7.76084C37.2079 7.89417 37.1999 8.0115 37.1892 8.11284H31.5493ZM33.7253 4.37684C33.1279 4.37684 32.6293 4.59017 32.2293 5.01684C31.8346 5.4435 31.6079 6.10217 31.5493 6.99284H35.7413C35.7253 6.1395 35.5386 5.4915 35.1813 5.04884C34.8293 4.60084 34.3439 4.37684 33.7253 4.37684ZM39.983 11.8088V10.6728H41.263V4.51284H39.983V3.37684H42.439L42.719 5.35284C43.039 4.65417 43.431 4.11817 43.895 3.74484C44.3643 3.36617 44.9723 3.17684 45.719 3.17684C45.9643 3.17684 46.1803 3.1955 46.367 3.23284C46.559 3.27017 46.7537 3.31817 46.951 3.37684L46.495 4.72084C46.319 4.6675 46.159 4.63017 46.015 4.60884C45.871 4.5875 45.7057 4.57684 45.519 4.57684C44.8843 4.57684 44.3403 4.80617 43.887 5.26484C43.4337 5.7235 43.071 6.39817 42.799 7.28884V10.6728H44.511V11.8088H39.983ZM45.527 6.33684V4.40084L45.703 3.37684H46.951L46.711 6.33684H45.527ZM49.4968 11.8088V3.37684H50.8168L50.9288 4.51284C51.2754 4.08084 51.6968 3.75017 52.1927 3.52084C52.6941 3.2915 53.1928 3.17684 53.6888 3.17684C54.4994 3.17684 55.0968 3.39817 55.4808 3.84084C55.8648 4.27817 56.0568 4.88884 56.0568 5.67284V11.8088H54.5208V6.61684C54.5208 6.0835 54.4888 5.6515 54.4248 5.32084C54.3661 4.98484 54.2408 4.74217 54.0488 4.59284C53.8568 4.4435 53.5661 4.36884 53.1768 4.36884C52.8728 4.36884 52.5848 4.4355 52.3128 4.56884C52.0408 4.70217 51.7954 4.87017 51.5768 5.07284C51.3634 5.2755 51.1821 5.48617 51.0328 5.70484V11.8088H49.4968ZM65.3065 9.87284C65.3065 10.2088 65.3598 10.4542 65.4665 10.6088C65.5732 10.7582 65.7412 10.8702 65.9705 10.9448L65.6105 12.0008C65.2265 11.9528 64.8932 11.8382 64.6105 11.6568C64.3278 11.4755 64.1172 11.1982 63.9785 10.8248C63.6745 11.2142 63.2905 11.5102 62.8265 11.7128C62.3625 11.9102 61.8585 12.0088 61.3145 12.0088C60.4665 12.0088 59.7972 11.7688 59.3065 11.2888C58.8158 10.8088 58.5705 10.1768 58.5705 9.39284C58.5705 8.51284 58.9118 7.83817 59.5945 7.36884C60.2825 6.8995 61.2692 6.66484 62.5545 6.66484H63.7785V6.02484C63.7785 5.4435 63.6052 5.03017 63.2585 4.78484C62.9172 4.5395 62.4398 4.41684 61.8265 4.41684C61.5492 4.41684 61.2185 4.4515 60.8345 4.52084C60.4505 4.59017 60.0425 4.6995 59.6105 4.84884L59.2185 3.72884C59.7412 3.5315 60.2398 3.39017 60.7145 3.30484C61.1945 3.2195 61.6425 3.17684 62.0585 3.17684C63.1465 3.17684 63.9598 3.42484 64.4985 3.92084C65.0372 4.4115 65.3065 5.08617 65.3065 5.94484V9.87284ZM61.7465 10.8568C62.1412 10.8568 62.5198 10.7555 62.8825 10.5528C63.2452 10.3502 63.5438 10.0675 63.7785 9.70484V7.66484H62.6585C61.7678 7.66484 61.1358 7.81684 60.7625 8.12084C60.3892 8.4195 60.2025 8.83017 60.2025 9.35284C60.2025 9.8435 60.3305 10.2168 60.5865 10.4728C60.8425 10.7288 61.2292 10.8568 61.7465 10.8568ZM74.3563 3.17684C74.6496 3.17684 74.9216 3.24084 75.1723 3.36884C75.4229 3.49684 75.6256 3.7315 75.7803 4.07284C75.9349 4.40884 76.0122 4.89684 76.0122 5.53684V11.8088H74.6123V5.76084C74.6123 5.27017 74.5803 4.91817 74.5163 4.70484C74.4576 4.48617 74.2869 4.37684 74.0043 4.37684C73.7696 4.37684 73.5376 4.44884 73.3083 4.59284C73.0789 4.73684 72.8523 4.97684 72.6283 5.31284V11.8088H71.2843V5.76084C71.2843 5.27017 71.2523 4.91817 71.1883 4.70484C71.1296 4.48617 70.9589 4.37684 70.6763 4.37684C70.4363 4.37684 70.2016 4.44884 69.9723 4.59284C69.7483 4.73684 69.5243 4.97684 69.3003 5.31284V11.8088H67.9003V3.37684H69.0843L69.1803 4.32084C69.4149 3.99017 69.6736 3.71817 69.9563 3.50484C70.2443 3.28617 70.5936 3.17684 71.0043 3.17684C71.3243 3.17684 71.6203 3.25417 71.8923 3.40884C72.1696 3.5635 72.3723 3.8515 72.5003 4.27284C72.7296 3.9475 72.9909 3.6835 73.2843 3.48084C73.5776 3.27817 73.9349 3.17684 74.3563 3.17684ZM79.518 8.11284C79.55 8.7315 79.6753 9.23817 79.894 9.63284C80.1127 10.0222 80.398 10.3102 80.75 10.4968C81.102 10.6782 81.4913 10.7688 81.918 10.7688C82.3393 10.7688 82.726 10.7048 83.078 10.5768C83.43 10.4488 83.7873 10.2622 84.15 10.0168L84.846 10.9848C84.4513 11.2995 83.9953 11.5502 83.478 11.7368C82.9607 11.9182 82.4247 12.0088 81.87 12.0088C81.0273 12.0088 80.31 11.8248 79.718 11.4568C79.1313 11.0835 78.6833 10.5662 78.374 9.90484C78.07 9.2435 77.918 8.4755 77.918 7.60084C77.918 6.75284 78.07 5.9955 78.374 5.32884C78.6833 4.66217 79.118 4.13684 79.678 3.75284C80.238 3.36884 80.9047 3.17684 81.678 3.17684C82.4033 3.17684 83.0273 3.34484 83.55 3.68084C84.078 4.01684 84.4833 4.49684 84.766 5.12084C85.0487 5.7395 85.19 6.48084 85.19 7.34484C85.19 7.48884 85.1873 7.6275 85.182 7.76084C85.1767 7.89417 85.1687 8.0115 85.158 8.11284H79.518ZM81.694 4.37684C81.0967 4.37684 80.598 4.59017 80.198 5.01684C79.8033 5.4435 79.5767 6.10217 79.518 6.99284H83.71C83.694 6.1395 83.5073 5.4915 83.15 5.04884C82.798 4.60084 82.3127 4.37684 81.694 4.37684Z" fill="#607B96"/>
</svg>
